<svg xmlns="http://www.w3.org/2000/svg" viewBox="0 0 512 512"><style>.ga4a{fill:#FFAF10;}.ga4b{fill:#DB722C;}.ga4c{fill:#52BBEF;}.ga4d{fill:#FE3745;}.ga4e{fill:#91E0E8;}.ga4f{fill:#37C47A;}</style><circle cx="256" cy="267" r="245" fill="#445EA0"/><path d="M100.7 421.6c-2.7 0-5-2.2-5-5V71.2H62.6c-2.7 0-5 2.3-5 5v334.5c13.4 18.4 29.2 34.9 47.1 48.9h276.4c2.8 0 5-2.2 5-5v-33.1L100.7 421.6 100.7 421.6z" class="ga4a"/><path d="M76.6 76.2c0-2.7 2.3-5 5-5h-19c-2.7 0-5 2.3-5 5v334.5c5.9 8.1 12.2 15.8 19 23.1V76.2z" fill="#EF9614"/><path d="M133.7 385.6c-2.7 0-5-2.2-5-5V36H97.9c-2.7 0-5 2.3-5 5v378.5c0 2.8 2.3 5 5 5h318.5c2.8 0 5-2.2 5-5v-33.8L133.7 385.6 133.7 385.6z" fill="#FF9518"/><path d="M110.9 419.5V41c0-2.7 2.3-5 5-5h-18c-2.7 0-5 2.3-5 5v378.5c0 2.8 2.3 5 5 5h18C113.1 424.5 110.9 422.2 110.9 419.5z" fill="#EF8318"/><path d="M454.4 383.5c0 2.8-2.2 5-5 5H130.9c-2.7 0-5-2.2-5-5V5c0-2.7 2.3-5 5-5h318.5c2.8 0 5 2.3 5 5V383.5z" fill="#D9EAFC"/><path d="M145.7 383.5V5c0-2.7 2.3-5 5-5h-19.8c-2.7 0-5 2.3-5 5v378.5c0 2.8 2.3 5 5 5h19.8C148 388.5 145.7 386.2 145.7 383.5z" fill="#C3DDF4"/><path d="M415.1 50.8h-69.6c-4.1 0-7.5-3.4-7.5-7.5 0-4.1 3.4-7.5 7.5-7.5h69.6c4.1 0 7.5 3.4 7.5 7.5C422.6 47.4 419.2 50.8 415.1 50.8z" class="ga4b"/><path d="M415.1 76.3h-69.6c-4.1 0-7.5-3.4-7.5-7.5 0-4.1 3.4-7.5 7.5-7.5h69.6c4.1 0 7.5 3.4 7.5 7.5C422.6 72.9 419.2 76.3 415.1 76.3z" class="ga4b"/><path d="M415.1 101.8h-69.6c-4.1 0-7.5-3.4-7.5-7.5s3.4-7.5 7.5-7.5h69.6c4.1 0 7.5 3.4 7.5 7.5C422.6 98.4 419.2 101.8 415.1 101.8z" class="ga4b"/><path d="M415.1 127.3h-69.6c-4.1 0-7.5-3.4-7.5-7.5 0-4.1 3.4-7.5 7.5-7.5h69.6c4.1 0 7.5 3.4 7.5 7.5C422.6 123.9 419.2 127.3 415.1 127.3z" class="ga4b"/><path d="M285.4 305.3H168.2c-4.1 0-7.5-3.4-7.5-7.5s3.4-7.5 7.5-7.5h117.2c4.1 0 7.5 3.4 7.5 7.5C292.9 301.9 289.5 305.3 285.4 305.3z" class="ga4c"/><path d="M285.4 330.8H168.2c-4.1 0-7.5-3.4-7.5-7.5 0-4.1 3.4-7.5 7.5-7.5h117.2c4.1 0 7.5 3.4 7.5 7.5C292.9 327.4 289.5 330.8 285.4 330.8z" class="ga4c"/><path d="M285.4 356.3H168.2c-4.1 0-7.5-3.4-7.5-7.5 0-4.1 3.4-7.5 7.5-7.5h117.2c4.1 0 7.5 3.4 7.5 7.5C292.9 352.9 289.5 356.3 285.4 356.3z" class="ga4c"/><path d="M415.1 171.8H308.4c-4.1 0-7.5-3.4-7.5-7.5s3.4-7.5 7.5-7.5H415.1c4.1 0 7.5 3.4 7.5 7.5S419.2 171.8 415.1 171.8z" class="ga4d"/><path d="M415.1 197.3H308.4c-4.1 0-7.5-3.4-7.5-7.5s3.4-7.5 7.5-7.5H415.1c4.1 0 7.5 3.4 7.5 7.5S419.2 197.3 415.1 197.3z" class="ga4d"/><path d="M415.1 222.8H308.4c-4.1 0-7.5-3.4-7.5-7.5 0-4.1 3.4-7.5 7.5-7.5H415.1c4.1 0 7.5 3.4 7.5 7.5C422.6 219.4 419.2 222.8 415.1 222.8z" class="ga4d"/><path d="M415.1 248.3H308.4c-4.1 0-7.5-3.4-7.5-7.5s3.4-7.5 7.5-7.5H415.1c4.1 0 7.5 3.4 7.5 7.5S419.2 248.3 415.1 248.3z" class="ga4d"/><path d="M154.8 215.8h29.2c0-16.1 13.1-29.2 29.2-29.2v-29.2C181 157.3 154.8 183.5 154.8 215.8z" class="ga4d"/><path d="M228.1 142.4v29.2c16.2 0 29.2 13.1 29.2 29.2h29.2C286.6 168.6 260.4 142.4 228.1 142.4z" class="ga4e"/><path d="M242.5 215.8c0 16.1-13.1 29.2-29.2 29.2s-29.2-13.1-29.2-29.2H154.8c0 32.3 26.2 58.5 58.5 58.5 32.3 0 58.5-26.2 58.5-58.5H242.5z" class="ga4a"/><path d="M188.4 115.1V45.3c0-1.6-1.3-3-3-3h-18.2c-1.6 0-3 1.4-3 3v69.8H188.4z" class="ga4a"/><path d="M227.5 115.1V64.3c0-1.6-1.3-3-3-3h-18.2c-1.6 0-3 1.4-3 3v50.8H227.5z" class="ga4d"/><path d="M266.6 115.1V87.3c0-1.6-1.3-3-3-3h-18.2c-1.6 0-3 1.4-3 3v27.8H266.6z" class="ga4f"/><path d="M305.7 115.1V45.3c0-1.6-1.3-3-3-3h-18.2c-1.6 0-3 1.4-3 3v69.8H305.7z" class="ga4e"/><path d="M379.6 319.7c0-1.7 1.3-3 3-3h13.6v-33.6c0-2.7-2.2-5-5-5h-45.1c-2.7 0-5 2.3-5 5v45.1c0 2.8 2.3 5 5 5h33.6V319.7z" class="ga4d"/><path d="M415.1 347.2c0 2.8-2.2 5-5 5h-27.5c-2.7 0-5-2.2-5-5v-27.5c0-2.7 2.3-5 5-5h27.5c2.8 0 5 2.3 5 5V347.2z" class="ga4f"/><path d="M310.9 127.3H159c-4.1 0-7.5-3.4-7.5-7.5 0-4.1 3.4-7.5 7.5-7.5h151.9c4.1 0 7.5 3.4 7.5 7.5C318.4 123.9 315 127.3 310.9 127.3z" class="ga4c"/></svg>